<svg xmlns="http://www.w3.org/2000/svg" viewBox="0 0 800 900" width="800" height="900" preserveAspectRatio="xMidYMid slice" role="img" aria-label="Bloodline campaign">
<defs>
<linearGradient id="sky" x1="0" y1="0" x2="0.3" y2="1">
<stop offset="0" stop-color="#2a1114"/><stop offset="0.55" stop-color="#140b0d"/><stop offset="1" stop-color="#050505"/>
</linearGradient>
<radialGradient id="glow" cx="0.72" cy="0.22" r="0.62">
<stop offset="0" stop-color="#d01824" stop-opacity=".55"/><stop offset="1" stop-color="#d01824" stop-opacity="0"/>
</radialGradient>
</defs>
<rect width="800" height="900" fill="url(#sky)"/>
<rect width="800" height="900" fill="url(#glow)"/>
<g stroke="rgba(232,226,214,.16)" fill="none" stroke-width="3">
<path d="M-40 560 Q160 486 360 560 Q560 634 840 546"/>
<path d="M-40 620 Q160 546 360 620 Q560 694 840 606"/>
<path d="M-40 680 Q160 606 360 680 Q560 754 840 666"/>
</g>
<g opacity=".9">
<path d="M470 150 L322 420 L410 420 L378 640 L556 356 L458 356 Z" fill="#d01824"/>
<path d="M470 150 L322 420 L410 420 L378 640 L556 356 L458 356 Z" fill="none" stroke="#f21d2a" stroke-width="4"/>
</g>
<g stroke="rgba(255,255,255,.07)" stroke-width="2">
<path d="M0 300 H800 M0 760 H800"/>
</g>
</svg>